<?xml version="1.0" encoding="UTF-8"?>
<svg version="1.1" xmlns="http://www.w3.org/2000/svg" width="327" height="327">
<path d="M0 0 C107.91 0 215.82 0 327 0 C327 107.91 327 215.82 327 327 C219.09 327 111.18 327 0 327 C0 219.09 0 111.18 0 0 Z " fill="#151515" transform="translate(0,0)"/>
<path d="M0 0 C0.66 0 1.32 0 2 0 C2 33.99 2 67.98 2 103 C17.51 103 33.02 103 49 103 C49 69.01 49 35.02 49 0 C53.29203915 1.43067972 56.35266858 2.59697103 60.14453125 4.78515625 C61.52995117 5.58083008 61.52995117 5.58083008 62.94335938 6.39257812 C63.89017578 6.94365234 64.83699219 7.49472656 65.8125 8.0625 C67.26172852 8.89491211 67.26172852 8.89491211 68.74023438 9.74414062 C75.84083005 13.84083005 75.84083005 13.84083005 77 15 C77.09516211 17.7388842 77.12554594 20.45247941 77.11352539 23.19165039 C77.11367142 24.05011063 77.11381744 24.90857086 77.1139679 25.79304504 C77.11326847 28.64460738 77.1054747 31.49610525 77.09765625 34.34765625 C77.09579218 36.31920842 77.09436822 38.29076105 77.09336853 40.26231384 C77.08954251 45.46226267 77.07971152 50.66218375 77.06866455 55.86212158 C77.05845222 61.16393661 77.05387129 66.4657561 77.04882812 71.76757812 C77.03808932 82.17839959 77.02049185 92.58919315 77 103 C86.57 103 96.14 103 106 103 C106 91.12 106 79.24 106 67 C129.57142857 56 129.57142857 56 133 56 C133 115.07 133 174.14 133 235 C127.09500227 234.26187528 123.17688637 233.5689353 117.8125 231.5625 C116.64332031 231.13066406 115.47414062 230.69882813 114.26953125 230.25390625 C111.50372979 229.1931867 108.75035792 228.10014317 106 227 C106 196.31 106 165.62 106 134 C96.43 134 86.86 134 77 134 C77 181.52 77 229.04 77 278 C67.595 282.95 67.595 282.95 58 288 C54.535 289.98 54.535 289.98 51 292 C50.34 292 49.68 292 49 292 C49 258.01 49 224.02 49 189 C33.49 189 17.98 189 2 189 C2 222.99 2 256.98 2 292 C-2.25297482 290.29881007 -6.06475445 288.35385558 -10 286.0625 C-10.90492187 285.54139648 -10.90492187 285.54139648 -11.828125 285.00976562 C-14.47509558 283.48200326 -17.10071964 281.93661104 -19.6875 280.30859375 C-22.16844331 278.76897253 -22.16844331 278.76897253 -26 278 C-26 248.63 -26 219.26 -26 189 C-35.57 189 -45.14 189 -55 189 C-55 200.88 -55 212.76 -55 225 C-60.28 227.31 -65.56 229.62 -71 232 C-72.77375 232.804375 -74.5475 233.60875 -76.375 234.4375 C-80 236 -80 236 -82 236 C-82 176.93 -82 117.86 -82 57 C-72.74096497 58.54317251 -63.90505474 62.03164842 -55 65 C-55 95.69 -55 126.38 -55 158 C-45.1 158 -35.2 158 -25 158 C-25.0628418 153.74029297 -25.12568359 149.48058594 -25.19042969 145.09179688 C-25.38925621 131.01856031 -25.52242233 116.94526847 -25.62174606 102.87099457 C-25.68357181 94.3374208 -25.76782357 85.80517935 -25.90527344 77.27246094 C-26.02504828 69.83342735 -26.102336 62.39535862 -26.12906194 54.95538759 C-26.1446819 51.01693013 -26.18125601 47.08123223 -26.26876068 43.1436615 C-26.35055688 39.43270867 -26.37528023 35.72563512 -26.35729218 32.01386642 C-26.36214087 30.01102774 -26.42656094 28.00860734 -26.49304199 26.00686646 C-26.41944079 20.62683449 -26.37029791 17.34319809 -22.4148941 13.46601868 C-19.35388309 11.3950929 -16.29854605 9.6610039 -13 8 C-11.30858655 7.02760906 -9.62018488 6.04991846 -7.9375 5.0625 C-5.59067528 3.77327599 -3.55894924 2.85298308 -1 2 C-0.67 1.34 -0.34 0.68 0 0 Z " fill="#E5AE4F" transform="translate(138,17)"/>
<path d="M0 0 C0.66 0 1.32 0 2 0 C2 33.99 2 67.98 2 103 C17.51 103 33.02 103 49 103 C49 69.01 49 35.02 49 0 C53.29203915 1.43067972 56.35266858 2.59697103 60.14453125 4.78515625 C61.52995117 5.58083008 61.52995117 5.58083008 62.94335938 6.39257812 C63.89017578 6.94365234 64.83699219 7.49472656 65.8125 8.0625 C67.26172852 8.89491211 67.26172852 8.89491211 68.74023438 9.74414062 C75.84083005 13.84083005 75.84083005 13.84083005 77 15 C77.09516211 17.7388842 77.12554594 20.45247941 77.11352539 23.19165039 C77.11367142 24.05011063 77.11381744 24.90857086 77.1139679 25.79304504 C77.11326847 28.64460738 77.1054747 31.49610525 77.09765625 34.34765625 C77.09579218 36.31920842 77.09436822 38.29076105 77.09336853 40.26231384 C77.08954251 45.46226267 77.07971152 50.66218375 77.06866455 55.86212158 C77.05845222 61.16393661 77.05387129 66.4657561 77.04882812 71.76757812 C77.03808932 82.17839959 77.02049185 92.58919315 77 103 C86.57 103 96.14 103 106 103 C106 91.12 106 79.24 106 67 C129.57142857 56 129.57142857 56 133 56 C133 115.07 133 174.14 133 235 C127.09500227 234.26187528 123.17688637 233.5689353 117.8125 231.5625 C116.64332031 231.13066406 115.47414062 230.69882813 114.26953125 230.25390625 C111.50372979 229.1931867 108.75035792 228.10014317 106 227 C106 196.31 106 165.62 106 134 C71.68 134 37.36 134 2 134 C2 141.92 2 149.84 2 158 C-6.91 158 -15.82 158 -25 158 C-25.27109955 139.62362137 -25.49205136 121.2488664 -25.62174606 102.87099457 C-25.68357181 94.3374208 -25.76782357 85.80517935 -25.90527344 77.27246094 C-26.02504828 69.83342735 -26.102336 62.39535862 -26.12906194 54.95538759 C-26.1446819 51.01693013 -26.18125601 47.08123223 -26.26876068 43.1436615 C-26.35055688 39.43270867 -26.37528023 35.72563512 -26.35729218 32.01386642 C-26.36214087 30.01102774 -26.42656094 28.00860734 -26.49304199 26.00686646 C-26.41944079 20.62683449 -26.37029791 17.34319809 -22.4148941 13.46601868 C-19.35388309 11.3950929 -16.29854605 9.6610039 -13 8 C-11.30858655 7.02760906 -9.62018488 6.04991846 -7.9375 5.0625 C-5.59067528 3.77327599 -3.55894924 2.85298308 -1 2 C-0.67 1.34 -0.34 0.68 0 0 Z " fill="#C5BEB4" transform="translate(138,17)"/>
<path d="M0 0 C4.29203915 1.43067972 7.35266858 2.59697103 11.14453125 4.78515625 C12.52995117 5.58083008 12.52995117 5.58083008 13.94335938 6.39257812 C14.89017578 6.94365234 15.83699219 7.49472656 16.8125 8.0625 C18.26172852 8.89491211 18.26172852 8.89491211 19.74023438 9.74414062 C26.84083005 13.84083005 26.84083005 13.84083005 28 15 C28.09516211 17.7388842 28.12554594 20.45247941 28.11352539 23.19165039 C28.11367142 24.05011063 28.11381744 24.90857086 28.1139679 25.79304504 C28.11326847 28.64460738 28.1054747 31.49610525 28.09765625 34.34765625 C28.09579218 36.31920842 28.09436822 38.29076105 28.09336853 40.26231384 C28.08954251 45.46226267 28.07971152 50.66218375 28.06866455 55.86212158 C28.05845222 61.16393661 28.05387129 66.4657561 28.04882812 71.76757812 C28.03808932 82.17839959 28.02049185 92.58919315 28 103 C37.57 103 47.14 103 57 103 C57 103.33 57 103.66 57 104 C22.68 104 -11.64 104 -47 104 C-47 103.67 -47 103.34 -47 103 C-31.49 103 -15.98 103 0 103 C0 69.01 0 35.02 0 0 Z " fill="#C99234" transform="translate(187,17)"/>
<path d="M0 0 C18.81 0 37.62 0 57 0 C57 34.32 57 68.64 57 104 C52.74702518 102.29881007 48.93524555 100.35385558 45 98.0625 C44.39671875 97.71509766 43.7934375 97.36769531 43.171875 97.00976562 C40.52490442 95.48200326 37.89928036 93.93661104 35.3125 92.30859375 C32.83155669 90.76897253 32.83155669 90.76897253 29 90 C29 60.63 29 31.26 29 1 C19.43 1 9.86 1 0 1 C0 0.67 0 0.34 0 0 Z " fill="#928E88" transform="translate(83,205)"/>
<path d="M0 0 C15.51 0 31.02 0 47 0 C47 7.92 47 15.84 47 24 C31.49 24 15.98 24 0 24 C0 16.08 0 8.16 0 0 Z " fill="#1F1D1D" transform="translate(140,151)"/>
<path d="M0 0 C0.33 0 0.66 0 1 0 C1 47.52 1 95.04 1 144 C-5.27 147.3 -11.54 150.6 -18 154 C-21.465 155.98 -21.465 155.98 -25 158 C-25.66 158 -26.32 158 -27 158 C-27 124.01 -27 90.02 -27 55 C-26.67 55 -26.34 55 -26 55 C-25.85460126 61.75449627 -25.71260294 68.50905845 -25.57275391 75.26367188 C-25.52499821 77.55209904 -25.47651934 79.84051126 -25.42724609 82.12890625 C-25.00691956 101.68695728 -24.73287748 121.19874219 -25.5 140.75 C-25.54769531 142.04292969 -25.59539062 143.33585938 -25.64453125 144.66796875 C-25.75974666 147.77878469 -25.87822029 150.88943539 -26 154 C-22.1455453 152.79840886 -19.72586087 151.98546666 -17 149 C-14 148 -14 148 -11 148 C-11 147.01 -11 146.02 -11 145 C-11.66 144.67 -12.32 144.34 -13 144 C-12.01 144 -11.02 144 -10 144 C-10 144.66 -10 145.32 -10 146 C-7.00007271 144.70855022 -7.00007271 144.70855022 -4 143 C-2.84275857 139.52827572 -2.78887925 136.66989671 -2.68359375 133.0078125 C-2.66281265 132.31394943 -2.64203156 131.62008636 -2.62062073 130.90519714 C-2.55468834 128.64523994 -2.49585218 126.38516463 -2.4375 124.125 C-2.39396149 122.56925228 -2.35034139 121.01350684 -2.30664062 119.45776367 C-2.05978513 110.32500598 -1.88726658 101.1974507 -2.03686523 92.06103516 C-2.09091333 87.4273116 -1.8640792 82.86640461 -1.51586914 78.24462891 C-0.92797908 69.90518144 -0.77918494 61.579962 -0.68359375 53.22265625 C-0.6629502 51.67467286 -0.64195226 50.12669416 -0.62062073 48.57872009 C-0.5661621 44.55941639 -0.51642615 40.54006853 -0.46777344 36.52069092 C-0.41699151 32.39721885 -0.36160543 28.27380868 -0.30664062 24.15039062 C-0.19999544 16.10031319 -0.09835402 8.050183 0 0 Z " fill="#85642B" transform="translate(214,151)"/>
<path d="M0 0 C4.29203915 1.43067972 7.35266858 2.59697103 11.14453125 4.78515625 C12.52995117 5.58083008 12.52995117 5.58083008 13.94335938 6.39257812 C14.89017578 6.94365234 15.83699219 7.49472656 16.8125 8.0625 C17.77865234 8.61744141 18.74480469 9.17238281 19.74023438 9.74414062 C26.84083005 13.84083005 26.84083005 13.84083005 28 15 C28.09516211 17.7388842 28.12554594 20.45247941 28.11352539 23.19165039 C28.11367142 24.05011063 28.11381744 24.90857086 28.1139679 25.79304504 C28.11326847 28.64460738 28.1054747 31.49610525 28.09765625 34.34765625 C28.09579218 36.31920842 28.09436822 38.29076105 28.09336853 40.26231384 C28.08954251 45.46226267 28.07971152 50.66218375 28.06866455 55.86212158 C28.05845222 61.16393661 28.05387129 66.4657561 28.04882812 71.76757812 C28.03808933 82.17839763 28.02101191 92.58919651 28 103 C27.67 103 27.34 103 27 103 C26.67 74.29 26.34 45.58 26 16 C22.5622652 14.61630452 22.5622652 14.61630452 19 14 C18.34 14.66 17.68 15.32 17 16 C16.731875 15.030625 16.46375 14.06125 16.1875 13.0625 C15.795625 12.051875 15.40375 11.04125 15 10 C12.03549787 9.01183262 10.08189674 8.92295258 7 9 C5 9 3 9 1 9 C1 36.72 1 64.44 1 93 C0.67 93 0.34 93 0 93 C0 62.31 0 31.62 0 0 Z " fill="#8B6627" transform="translate(187,17)"/>
<path d="M0 0 C0 3.3 0 6.6 0 10 C34.65 10 69.3 10 105 10 C105 7.69 105 5.38 105 3 C107 6 107 6 108 9 C107.67 9.99 107.34 10.98 107 12 C104 13 104 13 102.29077148 12.57080078 C98.99454035 11.74946556 95.72308514 11.85752838 92.34765625 11.8671875 C91.61050888 11.86623077 90.87336151 11.86527405 90.11387634 11.86428833 C88.55809443 11.86360925 87.00230964 11.86544455 85.4465332 11.86962891 C83.07431621 11.87497338 80.7022892 11.86967867 78.33007812 11.86328125 C76.81510375 11.86394223 75.3001295 11.8652238 73.78515625 11.8671875 C73.0798024 11.86516327 72.37444855 11.86313904 71.64772034 11.86105347 C67.11575913 11.88245758 63.09966712 12.41675913 58.75 13.625 C58.1725 13.74875 57.595 13.8725 57 14 C56.505 13.505 56.505 13.505 56 13 C52.09632675 12.61406286 48.16890998 12.52921636 44.25 12.375 C42.60257813 12.29765625 42.60257813 12.29765625 40.921875 12.21875 C39.8596875 12.17492187 38.7975 12.13109375 37.703125 12.0859375 C36.73020508 12.0451709 35.75728516 12.0044043 34.75488281 11.96240234 C32.02289502 11.99968754 29.67189708 12.46551853 27 13 C24.79677398 13.07970902 22.59136318 13.10772312 20.38671875 13.09765625 C19.13955078 13.09443359 17.89238281 13.09121094 16.60742188 13.08789062 C15.31384766 13.07951172 14.02027344 13.07113281 12.6875 13.0625 C10.71813477 13.05573242 10.71813477 13.05573242 8.70898438 13.04882812 C5.4726099 13.03705949 2.23632822 13.0206176 -1 13 C-2.58877287 9.82245425 -2 6.50617078 -2 3 C-2.33 2.34 -2.66 1.68 -3 1 C-1 0 -1 0 0 0 Z " fill="#EECB77" transform="translate(82,165)"/>
<path d="M0 0 C9.25903503 1.54317251 18.09494526 5.03164842 27 8 C27 24.17 27 40.34 27 57 C26.67 57 26.34 57 26 57 C25.67 41.16 25.34 25.32 25 9 C21.7 8.67 18.4 8.34 15 8 C15 7.34 15 6.68 15 6 C13.88625 6 12.7725 6 11.625 6 C9.75 6 7.875 6 6 6 C5.01 6.33 4.02 6.66 3 7 C2.01147497 11.18276251 1.80326716 15.19713486 1.68359375 19.48828125 C1.66281265 20.19147995 1.64203156 20.89467865 1.62062073 21.6191864 C1.55559885 23.85019817 1.49646224 26.08132069 1.4375 28.3125 C1.39426964 29.83139134 1.35065395 31.35027177 1.30664062 32.86914062 C1.19996666 36.5793112 1.09856779 40.28960421 1 44 C0.67 44 0.34 44 0 44 C0 29.48 0 14.96 0 0 Z M9 6 C9.66 6.33 10.32 6.66 11 7 C10.01 7 9.02 7 8 7 C8.33 6.67 8.66 6.34 9 6 Z " fill="#BC934E" transform="translate(56,74)"/>
<path d="M0 0 C0.33 0 0.66 0 1 0 C2.30083746 12.98514534 2.09207781 25.96587502 2 39 C9.26 39.33 16.52 39.66 24 40 C24.33 33.07 24.66 26.14 25 19 C25.33 19 25.66 19 26 19 C26 27.25 26 35.5 26 44 C17.42 44 8.84 44 0 44 C0 29.48 0 14.96 0 0 Z " fill="#E7DBC8" transform="translate(113,131)"/>
<path d="M0 0 C0.33 0 0.66 0 1 0 C1 5.28 1 10.56 1 16 C10.9 16 20.8 16 31 16 C31 16.33 31 16.66 31 17 C-3.32 17 -37.64 17 -73 17 C-73 16.67 -73 16.34 -73 16 C-57.16 16 -41.32 16 -25 16 C-24.67 15.01 -24.34 14.02 -24 13 C-23.505 13.495 -23.505 13.495 -23 14 C-21.43827255 14.08685603 -19.87270656 14.10702219 -18.30859375 14.09765625 C-16.89223633 14.09282227 -16.89223633 14.09282227 -15.44726562 14.08789062 C-13.95743164 14.07532227 -13.95743164 14.07532227 -12.4375 14.0625 C-11.44041016 14.05798828 -10.44332031 14.05347656 -9.41601562 14.04882812 C-6.94395151 14.03700007 -4.47200482 14.02051849 -2 14 C-1.67 13.34 -1.34 12.68 -1 12 C-2.32 11.67 -3.64 11.34 -5 11 C-3.68 11 -2.36 11 -1 11 C-1.01160156 10.28972656 -1.02320313 9.57945313 -1.03515625 8.84765625 C-1.04417969 7.92855469 -1.05320312 7.00945312 -1.0625 6.0625 C-1.07410156 5.14597656 -1.08570313 4.22945313 -1.09765625 3.28515625 C-1 1 -1 1 0 0 Z " fill="#B39B73" transform="translate(213,104)"/>
<path d="M0 0 C0.33 0 0.66 0 1 0 C1 11.88 1 23.76 1 36 C-4.28 38.31 -9.56 40.62 -15 43 C-16.77375 43.804375 -18.5475 44.60875 -20.375 45.4375 C-24 47 -24 47 -26 47 C-26 38.75 -26 30.5 -26 22 C-25.67 22 -25.34 22 -25 22 C-24.67 28.93 -24.34 35.86 -24 43 C-20.535 42.505 -20.535 42.505 -17 42 C-16.67 40.68 -16.34 39.36 -16 38 C-15.34 38 -14.68 38 -14 38 C-14 38.66 -14 39.32 -14 40 C-8.555 37.525 -8.555 37.525 -3 35 C-3.99 33.35 -4.98 31.7 -6 30 C-4.35 29.34 -2.7 28.68 -1 28 C-0.67 18.76 -0.34 9.52 0 0 Z " fill="#AE8642" transform="translate(82,206)"/>
<path d="M0 0 C2.475 0.495 2.475 0.495 5 1 C5 30.37 5 59.74 5 90 C13.91 90 22.82 90 32 90 C32 90.33 32 90.66 32 91 C22.76 91 13.52 91 4 91 C3.98541748 88.3499292 3.97083496 85.6998584 3.95581055 82.96948242 C3.90552609 74.22424023 3.8389421 65.47917725 3.76428509 56.73411083 C3.71951295 51.43074747 3.680272 46.12746215 3.65356445 40.82397461 C3.62759966 35.70803787 3.58724594 30.59240036 3.53681374 25.47664833 C3.52009873 23.52261381 3.5086134 21.56852747 3.50238609 19.61443138 C3.49279525 16.88220042 3.46479685 14.15074305 3.43237305 11.41870117 C3.43380814 10.60662201 3.43524323 9.79454285 3.4367218 8.95785522 C3.41152895 4.67184717 3.41152895 4.67184717 1.47297668 0.97383118 C0.98689438 0.65246689 0.50081207 0.3311026 0 0 Z " fill="#191003" transform="translate(211,29)"/>
<path d="M0 0 C8.58 0 17.16 0 26 0 C26.02297767 5.88994156 26.04288478 11.77972704 26.05493164 17.66967773 C26.05995478 19.67261279 26.06677445 21.67554419 26.07543945 23.6784668 C26.08759345 26.56039331 26.09324857 29.44227125 26.09765625 32.32421875 C26.10281754 33.21711105 26.10797882 34.11000336 26.11329651 35.029953 C26.113667 39.1527264 26.04768418 42.97964792 25 47 C24.67 47 24.34 47 24 47 C24 32.48 24 17.96 24 3 C18.18652899 2.10869817 18.18652899 2.10869817 12.59765625 2.12109375 C11.85322266 2.16943359 11.10878906 2.21777344 10.34179688 2.26757812 C9.58962891 2.32365234 8.83746094 2.37972656 8.0625 2.4375 C7.28326172 2.48970703 6.50402344 2.54191406 5.70117188 2.59570312 C3.80033228 2.72398064 1.90009096 2.86107321 0 3 C0 2.01 0 1.02 0 0 Z " fill="#F2C576" transform="translate(188,151)"/>
<path d="M0 0 C0.33 0 0.66 0 1 0 C1 24.09 1 48.18 1 73 C-0.98 73.495 -0.98 73.495 -3 74 C-2.84152588 73.48622803 -2.68305176 72.97245605 -2.51977539 72.44311523 C-1.84005912 69.24822527 -1.77787082 66.17587249 -1.68359375 62.91015625 C-1.66281265 62.21770813 -1.64203156 61.52526001 -1.62062073 60.81182861 C-1.55482412 58.56215881 -1.49591271 56.31237268 -1.4375 54.0625 C-1.39394752 52.51130996 -1.35032744 50.96012181 -1.30664062 49.40893555 C-1.05750715 40.21757358 -0.9474655 31.03824635 -1.01928711 21.84326172 C-1.0562655 14.52757774 -0.62693565 7.28812688 0 0 Z " fill="#AC813D" transform="translate(213,221)"/>
<path d="M0 0 C13.86 0 27.72 0 42 0 C41.67 0.66 41.34 1.32 41 2 C39.854104 1.99476318 38.70820801 1.98952637 37.52758789 1.98413086 C33.29159318 1.96608283 29.05560188 1.95456872 24.81958008 1.94506836 C22.98331125 1.94002769 21.14704646 1.93319523 19.31079102 1.92456055 C16.67723599 1.91248328 14.04373384 1.90676919 11.41015625 1.90234375 C10.58411392 1.89718246 9.75807159 1.89202118 8.90699768 1.88670349 C6.93763632 1.88650795 4.96838386 1.93795848 3 2 C0.84543031 4.15456969 1.73973374 9.0711627 1.68359375 12.06640625 C1.66281265 12.97502914 1.64203156 13.88365204 1.62062073 14.81980896 C1.55502328 17.73395946 1.4961932 20.64820304 1.4375 23.5625 C1.39432446 25.53321291 1.35071049 27.50391626 1.30664062 29.47460938 C1.19933157 34.31630988 1.09809325 39.15810437 1 44 C0.67 44 0.34 44 0 44 C0 29.48 0 14.96 0 0 Z " fill="#28251F" transform="translate(140,206)"/>
<path d="M0 0 C9.57 0 19.14 0 29 0 C29 0.66 29 1.32 29 2 C25.08334892 2.02904864 21.1667256 2.04681517 17.25 2.0625 C16.13882813 2.07087891 15.02765625 2.07925781 13.8828125 2.08789062 C12.27792969 2.09272461 12.27792969 2.09272461 10.640625 2.09765625 C9.65610352 2.10289307 8.67158203 2.10812988 7.65722656 2.11352539 C5 2 5 2 1 1 C1 13.21 1 25.42 1 38 C-7 41 -7 41 -11 40 C-9.5437455 39.32880451 -8.08492133 38.66318193 -6.625 38 C-5.81289062 37.62875 -5.00078125 37.2575 -4.1640625 36.875 C-2 36 -2 36 0 36 C0 24.12 0 12.24 0 0 Z " fill="#2F220D" transform="translate(83,206)"/>
<path d="M0 0 C2.31 0.66 4.62 1.32 7 2 C7 3.32 7 4.64 7 6 C-2.24 6 -11.48 6 -21 6 C-19 4 -19 4 -15.5234375 3.8046875 C-14.14049032 3.81798507 -12.75761346 3.84183768 -11.375 3.875 C-10.66859375 3.88402344 -9.9621875 3.89304688 -9.234375 3.90234375 C-7.48943902 3.92592397 -5.74467705 3.96179539 -4 4 C-3.67 3.34 -3.34 2.68 -3 2 C-2.34 2.33 -1.68 2.66 -1 3 C-0.67 2.01 -0.34 1.02 0 0 Z " fill="#EDDDC7" transform="translate(210,145)"/>
<path d="M0 0 C8.91 0 17.82 0 27 0 C26.67 2.31 26.34 4.62 26 7 C25.67 7 25.34 7 25 7 C25 5.35 25 3.7 25 2 C17.41 2 9.82 2 2 2 C1.67 6.95 1.34 11.9 1 17 C0.67 17 0.34 17 0 17 C0 11.39 0 5.78 0 0 Z " fill="#CBB99C" transform="translate(113,205)"/>
<path d="M0 0 C4.33331896 -0.0292427 8.66661221 -0.04688017 13 -0.0625 C14.22074219 -0.07087891 15.44148437 -0.07925781 16.69921875 -0.08789062 C22.89960932 -0.10464844 28.8726207 0.02727854 35 1 C34.67 1.66 34.34 2.32 34 3 C29.14429807 3 24.30873455 2.9866131 19.45703125 2.78125 C18.38388672 2.73613281 17.31074219 2.69101563 16.20507812 2.64453125 C15.08552734 2.59683594 13.96597656 2.54914063 12.8125 2.5 C11.68134766 2.45230469 10.55019531 2.40460938 9.38476562 2.35546875 C6.58981962 2.23753854 3.79489952 2.11902619 1 2 C0.67 1.34 0.34 0.68 0 0 Z " fill="#F9D17C" transform="translate(113,175)"/>
<path d="M0 0 C0.99 0.66 1.98 1.32 3 2 C2.01 3.485 2.01 3.485 1 5 C1.66 5 2.32 5 3 5 C2.43628586 8.26954202 1.50037734 9.82575883 -1 12 C-1.99 11.67 -2.98 11.34 -4 11 C-4 10.34 -4 9.68 -4 9 C-3.34 9 -2.68 9 -2 9 C-2 8.34 -2 7.68 -2 7 C-4.31 6.67 -6.62 6.34 -9 6 C-6.11912454 3.59927045 -3.43595166 1.52708963 0 0 Z " fill="#1A191F" transform="translate(200,302)"/>
<path d="M0 0 C7.75 0.875 7.75 0.875 10 2 C13.44127621 2.23137716 16.87577869 2.39544678 20.32226562 2.51757812 C22.21946625 2.60890568 24.11146711 2.79713434 26 3 C26.33 3.66 26.66 4.32 27 5 C17.595 5.495 17.595 5.495 8 6 C7.67 5.34 7.34 4.68 7 4 C6.01 4.495 6.01 4.495 5 5 C5 4.34 5 3.68 5 3 C3.35 2.67 1.7 2.34 0 2 C0 1.34 0 0.68 0 0 Z " fill="#EFB354" transform="translate(79,197)"/>
<path d="M0 0 C0.33 0 0.66 0 1 0 C1 7.92 1 15.84 1 24 C-4.94 23.67 -10.88 23.34 -17 23 C-17 22.34 -17 21.68 -17 21 C-11.72 21 -6.44 21 -1 21 C-0.67 14.07 -0.34 7.14 0 0 Z " fill="#EAE4D5" transform="translate(138,150)"/>
<path d="M0 0 C2.31 0.66 4.62 1.32 7 2 C6.01 2.495 6.01 2.495 5 3 C4.01 2.67 3.02 2.34 2 2 C2 16.85 2 31.7 2 47 C1.67 47 1.34 47 1 47 C0.67 31.49 0.34 15.98 0 0 Z " fill="#141008" transform="translate(184,14)"/>
<path d="M0 0 C0.33 0 0.66 0 1 0 C1.02468084 5.09032841 1.04285082 10.18062215 1.05493164 15.27099609 C1.05996682 17.00342414 1.06679532 18.73584792 1.07543945 20.46826172 C1.08754065 22.95541433 1.09323638 25.44251087 1.09765625 27.9296875 C1.10281754 28.70682098 1.10797882 29.48395447 1.11329651 30.28463745 C1.11387171 35.77225659 1.11387171 35.77225659 0 38 C-0.66 37.67 -1.32 37.34 -2 37 C-1.67 36.01 -1.34 35.02 -1 34 C-0.84677641 31.41669771 -0.74293111 28.85507761 -0.68359375 26.26953125 C-0.66281265 25.51911057 -0.64203156 24.76868988 -0.62062073 23.99552917 C-0.55530074 21.60127816 -0.49632208 19.20691861 -0.4375 16.8125 C-0.39429807 15.18813987 -0.35068324 13.56379067 -0.30664062 11.93945312 C-0.19963737 7.95974629 -0.09832063 3.97993042 0 0 Z " fill="#B37D22" transform="translate(212,257)"/>
<path d="M0 0 C2.97 0.99 5.94 1.98 9 3 C8.34 3.66 7.68 4.32 7 5 C6.34 5 5.68 5 5 5 C4.01 5.33 3.02 5.66 2 6 C1.67 7.65 1.34 9.3 1 11 C0.67 11 0.34 11 0 11 C0 7.37 0 3.74 0 0 Z " fill="#CC9536" transform="translate(57,75)"/>
<path d="M0 0 C-0.99 0.33 -1.98 0.66 -3 1 C-3.73323796 3.01508358 -3.73323796 3.01508358 -4 5 C-7.33333333 5 -10.66666667 5 -14 5 C-10.63156097 2.05261585 -4.40469071 -2.20234535 0 0 Z " fill="#2C200E" transform="translate(72,248)"/>
<path d="M0 0 C0 3 0 3 -1.6875 5.25 C-4 7 -4 7 -6.75 6.75 C-7.4925 6.5025 -8.235 6.255 -9 6 C-6.11912454 3.59927045 -3.43595166 1.52708963 0 0 Z " fill="#291F11" transform="translate(200,302)"/>
<path d="M0 0 C0 2.31 0 4.62 0 7 C-1.875 6.75 -1.875 6.75 -4 6 C-5.25 3.9375 -5.25 3.9375 -6 2 C-1.125 0 -1.125 0 0 0 Z " fill="#C89231" transform="translate(82,234)"/>
<path d="M0 0 C0.33 0.66 0.66 1.32 1 2 C0.67 2.99 0.34 3.98 0 5 C-3.3 5 -6.6 5 -10 5 C-10 4.67 -10 4.34 -10 4 C-8.02 3.67 -6.04 3.34 -4 3 C-4 2.34 -4 1.68 -4 1 C-2.68 0.67 -1.36 0.34 0 0 Z " fill="#EBB158" transform="translate(186,200)"/>
<path d="M0 0 C3.96 0 7.92 0 12 0 C12 0.66 12 1.32 12 2 C10.02 2.33 8.04 2.66 6 3 C6 2.34 6 1.68 6 1 C5.38125 1.20625 4.7625 1.4125 4.125 1.625 C3.42375 1.74875 2.7225 1.8725 2 2 C1.34 1.34 0.68 0.68 0 0 Z " fill="#D2C5B6" transform="translate(203,121)"/>
<path d="M0 0 C3.375 -0.125 3.375 -0.125 7 0 C9 2 9 2 9 5 C5.54074837 3.7508258 2.85306797 2.32472205 0 0 Z " fill="#201705" transform="translate(198,22)"/>
<path d="M0 0 C0.33 0 0.66 0 1 0 C1.02694851 1.95825873 1.04637218 3.91662226 1.0625 5.875 C1.07410156 6.96554687 1.08570313 8.05609375 1.09765625 9.1796875 C1 12 1 12 0 14 C-0.66 13.67 -1.32 13.34 -2 13 C-1.34 8.71 -0.68 4.42 0 0 Z " fill="#AA7618" transform="translate(212,281)"/>
<path d="M0 0 C-0.66 1.32 -1.32 2.64 -2 4 C-3.98 4 -5.96 4 -8 4 C-2.7826087 0 -2.7826087 0 0 0 Z " fill="#261A17" transform="translate(215,295)"/>
<path d="M0 0 C-0.66 1.32 -1.32 2.64 -2 4 C-4.31 4 -6.62 4 -9 4 C-6.10130984 1.70103884 -3.84906588 0 0 0 Z " fill="#8E8A87" transform="translate(264,76)"/>
</svg>
