<?xml version="1.0" encoding="UTF-8"?>
<svg version="1.1" xmlns="http://www.w3.org/2000/svg" width="427" height="85">
<path d="M0 0 C140.91 0 281.82 0 427 0 C427 28.05 427 56.1 427 85 C286.09 85 145.18 85 0 85 C0 56.95 0 28.9 0 0 Z " fill="#FCFCFC" transform="translate(0,0)"/>
<path d="M0 0 C26.4 0 52.8 0 80 0 C80 26.4 80 52.8 80 80 C53.6 80 27.2 80 0 80 C0 53.6 0 27.2 0 0 Z " fill="#171616" transform="translate(3,3)"/>
<path d="M0 0 C0 7.92 0 15.84 0 24 C3.96 24 7.92 24 12 24 C12 16.08 12 8.16 12 0 C17 2 17 2 19 3 C19 9.93 19 16.86 19 24 C21.31 24 23.62 24 26 24 C25.98839844 23.36191406 25.97679687 22.72382813 25.96484375 22.06640625 C25.95582031 21.24011719 25.94679687 20.41382812 25.9375 19.5625 C25.92589844 18.73878906 25.91429687 17.91507813 25.90234375 17.06640625 C26 15 26 15 27 14 C28.65 14 30.3 14 32 14 C32 27.86 32 41.72 32 56 C30.02 55.34 28.04 54.68 26 54 C26 46.74 26 39.48 26 32 C23.69 32 21.38 32 19 32 C19 43.88 19 55.76 19 68 C15.535 68.99 15.535 68.99 12 70 C12 61.75 12 53.5 12 45 C8.04 45 4.08 45 0 45 C0 53.25 0 61.5 0 70 C-6 68 -6 68 -7 67 C-7.08685603 65.43827255 -7.10702219 63.87270656 -7.09765625 62.30859375 C-7.09443359 61.36435547 -7.09121094 60.42011719 -7.08789062 59.44726562 C-7.07951172 58.45404297 -7.07113281 57.46082031 -7.0625 56.4375 C-7.05798828 55.44041016 -7.05347656 54.44332031 -7.04882812 53.41601562 C-7.03700007 50.94395151 -7.02051849 48.47200482 -7 46 C-8.98 46 -10.96 46 -13 46 C-12.938125 47.27875 -12.87625 48.5575 -12.8125 49.875 C-12.70703125 52.0546875 -12.70703125 52.0546875 -13 54 C-16 56 -16 56 -20 56 C-20 42.14 -20 28.28 -20 14 C-17.69 14 -15.38 14 -13 14 C-13 21.59 -13 29.18 -13 37 C-11.02 37 -9.04 37 -7 37 C-7.02618408 35.98574951 -7.05236816 34.97149902 -7.0793457 33.92651367 C-7.16983519 30.16404271 -7.22724312 26.40166783 -7.2746582 22.63842773 C-7.29980568 21.0096825 -7.33392878 19.38105015 -7.37719727 17.75268555 C-7.4378455 15.41166366 -7.46620476 13.07213269 -7.48828125 10.73046875 C-7.51408768 10.00224411 -7.5398941 9.27401947 -7.56648254 8.52372742 C-7.56762695 6.46166992 -7.56762695 6.46166992 -7 3 C-4.58420924 1.0083763 -3.15288566 0 0 0 Z " fill="#F2BA5A" transform="translate(37,8)"/>
<path d="M0 0 C4.69893624 1.5980188 8.08914927 4.27398658 10.3359375 8.81640625 C11.99214538 14.26240745 12.12460785 20.11473561 10.046875 25.4453125 C7.75289628 29.37992156 5.38352756 32.44141242 1 34 C-5.0234139 34.68670843 -8.00489306 34.7463302 -13 31 C-13.33 37.27 -13.66 43.54 -14 50 C-17.3 50 -20.6 50 -24 50 C-24 33.83 -24 17.66 -24 1 C-20.7 1 -17.4 1 -14 1 C-13.67 1.66 -13.34 2.32 -13 3 C-12.34 2.505 -11.68 2.01 -11 1.5 C-7.2343651 -0.38281745 -4.09066321 -0.68436951 0 0 Z " fill="#040404" transform="translate(216,27)"/>
<path d="M0 0 C5.29112204 2.74731337 9.09375244 6.28125733 11 12 C11.75856083 18.70784505 11.48703676 23.87451683 7.40625 29.40625 C4.70319358 32.46971395 2.71326832 33.80467625 -1.3984375 34.2734375 C-6.81415404 34.47990177 -8.42652907 34.4301032 -13 31 C-13.33 37.27 -13.66 43.54 -14 50 C-17.3 50 -20.6 50 -24 50 C-24 33.83 -24 17.66 -24 1 C-20.7 1 -17.4 1 -14 1 C-13.67 1.66 -13.34 2.32 -13 3 C-12.34 2.505 -11.68 2.01 -11 1.5 C-7.25792214 -0.37103893 -4.07015931 -0.71967453 0 0 Z " fill="#060606" transform="translate(257,27)"/>
<path d="M0 0 C1.2375 0.7425 1.2375 0.7425 2.5 1.5 C2.83 0.84 3.16 0.18 3.5 -0.5 C6.8 -0.5 10.1 -0.5 13.5 -0.5 C13.5 10.39 13.5 21.28 13.5 32.5 C10.2 32.5 6.9 32.5 3.5 32.5 C3.17 31.51 2.84 30.52 2.5 29.5 C1.88125 29.995 1.2625 30.49 0.625 31 C-3.79460127 33.12140861 -7.68073894 33.31865653 -12.5 32.5 C-16.03016624 30.77904396 -18.07365915 28.08266583 -20.375 24.9375 C-22.28453513 19.10280932 -22.80551649 12.86855489 -20.55078125 7.05078125 C-15.74891547 -1.14420105 -8.87457816 -3.80339064 0 0 Z " fill="#040404" transform="translate(170.5,28.5)"/>
<path d="M0 0 C3.3 0 6.6 0 10 0 C10 5.28 10 10.56 10 16 C15.61 16 21.22 16 27 16 C27 10.72 27 5.44 27 0 C30.3 0 33.6 0 37 0 C37 13.86 37 27.72 37 42 C33.7 42 30.4 42 27 42 C27 36.39 27 30.78 27 25 C21.39 25 15.78 25 10 25 C10 30.61 10 36.22 10 42 C6.7 42 3.4 42 0 42 C0 28.14 0 14.28 0 0 Z " fill="#080808" transform="translate(107,19)"/>
<path d="M0 0 C5.00142153 2.79819309 7.57504449 5.8241328 9.7265625 11.11328125 C9.7265625 13.75328125 9.7265625 16.39328125 9.7265625 19.11328125 C2.1365625 19.11328125 -5.4534375 19.11328125 -13.2734375 19.11328125 C-12.9434375 20.76328125 -12.6134375 22.41328125 -12.2734375 24.11328125 C-8.2633441 24.29192756 -8.2633441 24.29192756 -4.2734375 24.11328125 C-3.6134375 23.45328125 -2.9534375 22.79328125 -2.2734375 22.11328125 C0.328125 21.91796875 0.328125 21.91796875 3.3515625 21.98828125 C4.85589844 22.01535156 4.85589844 22.01535156 6.390625 22.04296875 C7.16148437 22.06617187 7.93234375 22.089375 8.7265625 22.11328125 C6.74137339 26.85567745 4.57910582 31.0069575 -0.2734375 33.11328125 C-5.79775158 33.994257 -11.48594581 34.46549162 -16.6328125 31.96875 C-20.93990747 28.48073933 -23.84544664 24.33926234 -24.5859375 18.7578125 C-24.86592152 12.97439255 -24.21638001 8.50175399 -20.2734375 4.11328125 C-14.39816371 -1.22049265 -7.5257808 -2.93531313 0 0 Z " fill="#080808" transform="translate(295.2734375,27.88671875)"/>
<path d="M0 0 C3.63 0 7.26 0 11 0 C11.9802271 2.43707838 12.95922171 4.87463945 13.9375 7.3125 C14.21529297 8.00279297 14.49308594 8.69308594 14.77929688 9.40429688 C15.92140128 12.25267773 17.02930231 15.08790694 18 18 C18.48919922 16.80503906 18.48919922 16.80503906 18.98828125 15.5859375 C21.16848218 10.29943258 23.32988508 5.05916511 26 0 C29.3 0 32.6 0 36 0 C35.30135566 4.68303763 33.58690391 8.75098053 31.76171875 13.08203125 C31.43967972 13.85504074 31.11764069 14.62805023 30.7858429 15.42448425 C30.10463358 17.0567799 29.42116811 18.68813558 28.7355957 20.31860352 C27.6963406 22.79146418 26.664992 25.26750696 25.63476562 27.74414062 C24.96921972 29.33613395 24.30321852 30.92793703 23.63671875 32.51953125 C23.33239426 33.25001175 23.02806976 33.98049225 22.71452332 34.73310852 C20.66491249 39.59505289 18.40055265 44.3010529 16 49 C12.37 49 8.74 49 5 49 C5.54011719 47.94941406 6.08023437 46.89882812 6.63671875 45.81640625 C7.32186458 44.39918679 8.00537197 42.98117443 8.6875 41.5625 C9.04650391 40.87478516 9.40550781 40.18707031 9.77539062 39.47851562 C11.63783509 35.51390611 12.3663266 32.91829192 11 28.6796875 C10.35936627 27.10892084 9.69045978 25.54951113 9 24 C8.24493188 22.12676999 7.49108212 20.25304855 6.73828125 18.37890625 C5.51600574 15.43550782 4.28463829 12.49602065 3.05273438 9.55664062 C2.66021484 8.61111328 2.26769531 7.66558594 1.86328125 6.69140625 C1.50532471 5.83748291 1.14736816 4.98355957 0.77856445 4.10375977 C0 2 0 2 0 0 Z " fill="#050505" transform="translate(387,28)"/>
<path d="M0 0 C3.63 0 7.26 0 11 0 C11 0.99 11 1.98 11 3 C12.010625 2.505 13.02125 2.01 14.0625 1.5 C17.84060832 -0.10283383 20.8717825 -0.45869083 25 0 C29.22428562 1.82412334 30.9745592 3.92363438 33 8 C33.34057617 10.9543457 33.34057617 10.9543457 33.29296875 14.17578125 C33.2784668 15.91118164 33.2784668 15.91118164 33.26367188 17.68164062 C33.23853516 18.87982422 33.21339844 20.07800781 33.1875 21.3125 C33.16719727 23.1387793 33.16719727 23.1387793 33.14648438 25.00195312 C33.11119261 28.00175345 33.06188481 31.00064975 33 34 C29.7 34 26.4 34 23 34 C22.95101563 32.43507812 22.90203125 30.87015625 22.8515625 29.2578125 C22.77654271 27.21352322 22.70099455 25.16925328 22.625 23.125 C22.5940625 22.09246094 22.563125 21.05992188 22.53125 19.99609375 C22.49257813 19.00996094 22.45390625 18.02382813 22.4140625 17.0078125 C22.36693115 15.64100342 22.36693115 15.64100342 22.31884766 14.24658203 C22.20117489 11.80068814 22.20117489 11.80068814 20 10 C16.5 9.58333333 16.5 9.58333333 13 10 C10.87719437 13.18420845 10.71980463 14.20537255 10.5859375 17.88671875 C10.52792969 19.2934082 10.52792969 19.2934082 10.46875 20.72851562 C10.4378125 21.70498047 10.406875 22.68144531 10.375 23.6875 C10.31699219 25.16959961 10.31699219 25.16959961 10.2578125 26.68164062 C10.16354601 29.1207861 10.0806841 31.56036747 10 34 C6.7 34 3.4 34 0 34 C0 22.78 0 11.56 0 0 Z " fill="#0A0A0A" transform="translate(310,27)"/>
<path d="M0 0 C5 2 5 2 7 3 C7 9.93 7 16.86 7 24 C9.31 24 11.62 24 14 24 C13.98839844 23.36191406 13.97679688 22.72382813 13.96484375 22.06640625 C13.95582031 21.24011719 13.94679688 20.41382812 13.9375 19.5625 C13.92589844 18.73878906 13.91429688 17.91507813 13.90234375 17.06640625 C14 15 14 15 15 14 C16.65 14 18.3 14 20 14 C20 27.86 20 41.72 20 56 C18.02 55.34 16.04 54.68 14 54 C14 46.74 14 39.48 14 32 C5.42 32 -3.16 32 -12 32 C-12 33.98 -12 35.96 -12 38 C-13.98 38 -15.96 38 -18 38 C-18 31.4 -18 24.8 -18 18 C-16.02 17.67 -14.04 17.34 -12 17 C-12 19.31 -12 21.62 -12 24 C-8.04 24 -4.08 24 0 24 C0 16.08 0 8.16 0 0 Z " fill="#D1C9BE" transform="translate(49,8)"/>
<path d="M0 0 C0 2.97 0 5.94 0 9 C-1.32 9.33 -2.64 9.66 -4 10 C-4.33 11.32 -4.66 12.64 -5 14 C-3.35 14 -1.7 14 0 14 C0 16.64 0 19.28 0 22 C-1.65 22 -3.3 22 -5 22 C-5 30.25 -5 38.5 -5 47 C-8.3 47 -11.6 47 -15 47 C-15 38.75 -15 30.5 -15 22 C-16.32 22 -17.64 22 -19 22 C-19 19.36 -19 16.72 -19 14 C-17.68 14 -16.36 14 -15 14 C-15.0825 12.948125 -15.165 11.89625 -15.25 10.8125 C-14.95894856 6.3739655 -14.19071703 5.01824584 -11 2 C-7.28558235 -0.05270449 -4.20044297 -0.19536944 0 0 Z " fill="#040404" transform="translate(385,14)"/>
<path d="M0 0 C0 5.61 0 11.22 0 17 C-1.98 17.99 -1.98 17.99 -4 19 C-4.66 18.67 -5.32 18.34 -6 18 C-6 24.6 -6 31.2 -6 38 C-4.02 38 -2.04 38 0 38 C0 36.02 0 34.04 0 32 C5.61 32 11.22 32 17 32 C17 34.97 17 37.94 17 41 C5.78 40.67 -5.44 40.34 -17 40 C-16.34 39.34 -15.68 38.68 -15 38 C-14.62904292 35.57753405 -14.62904292 35.57753405 -14.5859375 32.7734375 C-14.54726563 31.7421875 -14.50859375 30.7109375 -14.46875 29.6484375 C-14.4378125 28.56820312 -14.406875 27.48796875 -14.375 26.375 C-14.33632813 25.28703125 -14.29765625 24.1990625 -14.2578125 23.078125 C-14.16333753 20.38558835 -14.07777569 17.69306243 -14 15 C-14.99 14.67 -15.98 14.34 -17 14 C-15.68 14 -14.36 14 -13 14 C-13 21.59 -13 29.18 -13 37 C-11.02 37 -9.04 37 -7 37 C-7.02618408 35.98574951 -7.05236816 34.97149902 -7.0793457 33.92651367 C-7.16983519 30.16404271 -7.22724312 26.40166783 -7.2746582 22.63842773 C-7.29980568 21.0096825 -7.33392878 19.38105015 -7.37719727 17.75268555 C-7.4378455 15.41166366 -7.46620476 13.07213269 -7.48828125 10.73046875 C-7.51408768 10.00224411 -7.5398941 9.27401947 -7.56648254 8.52372742 C-7.56762695 6.46166992 -7.56762695 6.46166992 -7 3 C-4.58420924 1.0083763 -3.15288566 0 0 0 Z " fill="#7D776D" transform="translate(37,8)"/>
<path d="M0 0 C3.3 0 6.6 0 10 0 C10 10.89 10 21.78 10 33 C6.7 33 3.4 33 0 33 C0 22.11 0 11.22 0 0 Z " fill="#000000" transform="translate(351,28)"/>
<path d="M0 0 C4.99268902 1.47931526 4.99268902 1.47931526 6.375 4 C6.76067013 8.04953637 6.87738217 10.74404458 5.375 14.5 C2.77807462 16.44769403 0.51998881 16.62031248 -2.68359375 16.44921875 C-4.625 16 -4.625 16 -7.125 13.875 C-8.90301176 10.46714413 -9.33460213 8.78454468 -8.625 5 C-5.91953265 1.14675862 -4.77773264 0 0 0 Z " fill="#F4F4F4" transform="translate(167.625,36)"/>
<path d="M0 0 C2.375 1.4375 2.375 1.4375 4 4 C4.49269345 7.06687831 4.62344409 9.95017891 4 13 C2.47688258 15.0913753 1.60836752 15.87489216 -0.9375 16.3984375 C-1.618125 16.39070313 -2.29875 16.38296875 -3 16.375 C-3.680625 16.38273437 -4.36125 16.39046875 -5.0625 16.3984375 C-7.60836752 15.87489216 -8.47688258 15.0913753 -10 13 C-10.86672198 8.76008978 -10.70069294 5.10493887 -8.375 1.4375 C-5.27451464 -0.43910956 -3.56716403 -0.59452734 0 0 Z " fill="#F8F8F8" transform="translate(253,36)"/>
<path d="M0 0 C2.16015625 1.21484375 2.16015625 1.21484375 4 3 C4.49609375 5.375 4.49609375 5.375 4.4375 8 C4.43621094 8.86625 4.43492187 9.7325 4.43359375 10.625 C3.91843184 13.44678774 3.33008913 14.35678521 1 16 C-1.72662617 16.61019255 -4.25649319 16.49726061 -7 16 C-9.36110026 14.22917481 -9.84291198 12.9703665 -10.30859375 10.09375 C-10.5291362 6.51160594 -10.36111402 4.55556004 -8.375 1.5 C-5.29889257 -0.44280469 -3.58110811 -0.52224493 0 0 Z " fill="#F7F7F7" transform="translate(212,36)"/>
<path d="M0 0 C4.62 0 9.24 0 14 0 C14 8.25 14 16.5 14 25 C8 23 8 23 7 22 C6.91314397 20.43827255 6.89297781 18.87270656 6.90234375 17.30859375 C6.90556641 16.36435547 6.90878906 15.42011719 6.91210938 14.44726562 C6.92048828 13.45404297 6.92886719 12.46082031 6.9375 11.4375 C6.94201172 10.44041016 6.94652344 9.44332031 6.95117188 8.41601562 C6.96299993 5.94395151 6.97948151 3.47200482 7 1 C5.02 1 3.04 1 1 1 C1 3.64 1 6.28 1 9 C0.67 9 0.34 9 0 9 C0 6.03 0 3.06 0 0 Z " fill="#847F77" transform="translate(23,53)"/>
<path d="M0 0 C0.33 0 0.66 0 1 0 C1 11.88 1 23.76 1 36 C-1.31 36.66 -3.62 37.32 -6 38 C-6.05800828 34.39590081 -6.09359869 30.79192149 -6.125 27.1875 C-6.14175781 26.16333984 -6.15851562 25.13917969 -6.17578125 24.08398438 C-6.18222656 23.10107422 -6.18867187 22.11816406 -6.1953125 21.10546875 C-6.20578613 20.19949951 -6.21625977 19.29353027 -6.22705078 18.36010742 C-6 16 -6 16 -4 13 C-3.34 13 -2.68 13 -2 13 C-2 13.66 -2 14.32 -2 15 C-1.34 15 -0.68 15 0 15 C0 10.05 0 5.1 0 0 Z " fill="#AF7F2B" transform="translate(55,40)"/>
<path d="M0 0 C5.61 0 11.22 0 17 0 C17 2.97 17 5.94 17 9 C5.78 8.67 -5.44 8.34 -17 8 C-15 6 -15 6 -11.5234375 5.8046875 C-10.14049032 5.81798507 -8.75761346 5.84183768 -7.375 5.875 C-6.66859375 5.88402344 -5.9621875 5.89304687 -5.234375 5.90234375 C-3.48943902 5.92592397 -1.74467705 5.96179539 0 6 C0 4.02 0 2.04 0 0 Z " fill="#FECD6B" transform="translate(37,40)"/>
<path d="M0 0 C5 2 5 2 7 3 C7 9.93 7 16.86 7 24 C4.69 24 2.38 24 0 24 C0 16.08 0 8.16 0 0 Z " fill="#BD8931" transform="translate(49,8)"/>
<path d="M0 0 C1.21236328 0.01353516 1.21236328 0.01353516 2.44921875 0.02734375 C3.37154297 0.04474609 3.37154297 0.04474609 4.3125 0.0625 C4.3125 1.7125 4.3125 3.3625 4.3125 5.0625 C3.6525 5.0625 2.9925 5.0625 2.3125 5.0625 C2.3125 4.4025 2.3125 3.7425 2.3125 3.0625 C0.9925 4.0525 -0.3275 5.0425 -1.6875 6.0625 C-1.6875 5.0725 -1.6875 4.0825 -1.6875 3.0625 C-10.2675 3.0625 -18.8475 3.0625 -27.6875 3.0625 C-27.6875 6.3625 -27.6875 9.6625 -27.6875 13.0625 C-29.6675 13.3925 -31.6475 13.7225 -33.6875 14.0625 C-33.6875 10.1025 -33.6875 6.1425 -33.6875 2.0625 C-29.99771747 1.32454349 -27.35616965 0.9493229 -23.7109375 1 C-22.793125 1.00773437 -21.8753125 1.01546875 -20.9296875 1.0234375 C-19.98351563 1.03632812 -19.03734375 1.04921875 -18.0625 1.0625 C-16.17453661 1.08801302 -14.28650586 1.10904449 -12.3984375 1.125 C-11.15006104 1.14240234 -11.15006104 1.14240234 -9.87646484 1.16015625 C-6.44312911 1.0069849 -3.52336986 -0.05106333 0 0 Z " fill="#E5AD50" transform="translate(50.6875,49.9375)"/>
<path d="M0 0 C0.36923077 5.53846154 0.36923077 5.53846154 -1.5 7.875 C-2.2425 8.431875 -2.2425 8.431875 -3 9 C-2.01 9 -1.02 9 0 9 C1.50156874 12.00313748 1.09281204 14.79067522 1.0625 18.125 C1.05347656 19.40632813 1.04445313 20.68765625 1.03515625 22.0078125 C1.02355469 22.99523437 1.01195313 23.98265625 1 25 C-0.98 24.34 -2.96 23.68 -5 23 C-5.05454409 20.64551325 -5.0939279 18.29232125 -5.125 15.9375 C-5.14820313 14.62652344 -5.17140625 13.31554687 -5.1953125 11.96484375 C-4.99177754 7.83308411 -4.40696599 4.86177728 -3 1 C-1 0 -1 0 0 0 Z " fill="#C8C1B6" transform="translate(68,39)"/>
<path d="M0 0 C1.875 1.1875 1.875 1.1875 3 3 C3.4375 5.5 3.4375 5.5 3 8 C0.87208838 10.2855347 -0.47408328 10.92303658 -3.5625 11.375 C-6 11 -6 11 -7.8125 9.8125 C-9.42525784 7.35092224 -9.4334014 5.88934264 -9 3 C-6.73529086 -0.64869805 -4.03159541 -0.50394943 0 0 Z " fill="#070707" transform="translate(359,13)"/>
<path d="M0 0 C3.96 0 7.92 0 12 0 C12 1.98 12 3.96 12 6 C8.04 6 4.08 6 0 6 C0 4.02 0 2.04 0 0 Z " fill="#2A2724" transform="translate(37,40)"/>
<path d="M0 0 C1.2065625 0.0309375 1.2065625 0.0309375 2.4375 0.0625 C2.67147834 2.91703575 2.86218097 5.266224 2.4375 8.0625 C-0.44400567 10.94400567 -2.96160948 11.2152452 -6.875 11.25 C-8.7003125 11.1571875 -8.7003125 11.1571875 -10.5625 11.0625 C-10.5625 10.7325 -10.5625 10.4025 -10.5625 10.0625 C-8.2525 10.0625 -5.9425 10.0625 -3.5625 10.0625 C-3.57410156 9.42441406 -3.58570313 8.78632813 -3.59765625 8.12890625 C-3.60667969 7.30261719 -3.61570312 6.47632813 -3.625 5.625 C-3.63660156 4.80128906 -3.64820313 3.97757813 -3.66015625 3.12890625 C-3.51340586 0.02366796 -3.12550237 0.07623177 0 0 Z " fill="#ADA8A0" transform="translate(66.5625,21.9375)"/>
<path d="M0 0 C6.6 0.6 6.6 0.6 9 3 C9 3.99 9 4.98 9 6 C4.71 6 0.42 6 -4 6 C-1 1 -1 1 0 0 Z " fill="#F0F0F0" transform="translate(285,35)"/>
<path d="M0 0 C0.99 0.33 1.98 0.66 3 1 C3 3.97 3 6.94 3 10 C1.02 10.33 -0.96 10.66 -3 11 C-2.88590407 9.54077307 -2.75834456 8.08259402 -2.625 6.625 C-2.55539063 5.81289063 -2.48578125 5.00078125 -2.4140625 4.1640625 C-2 2 -2 2 0 0 Z " fill="#C99339" transform="translate(20,53)"/>
<path d="M0 0 C8.25 0 16.5 0 25 0 C25 0.99 25 1.98 25 3 C16.59784035 3.11039334 8.35263176 2.95458649 0 2 C0 1.34 0 0.68 0 0 Z " fill="#E1D8CA" transform="translate(38,37)"/>
<path d="M0 0 C0.33 0.99 0.66 1.98 1 3 C2.32 3 3.64 3 5 3 C5 4.98 5 6.96 5 9 C3.02 9 1.04 9 -1 9 C-1.125 2.25 -1.125 2.25 0 0 Z " fill="#EDE3D2" transform="translate(32,37)"/>
<path d="M0 0 C1.21236328 0.02707031 1.21236328 0.02707031 2.44921875 0.0546875 C3.37154297 0.08949219 3.37154297 0.08949219 4.3125 0.125 C4.3125 1.775 4.3125 3.425 4.3125 5.125 C3.6525 5.125 2.9925 5.125 2.3125 5.125 C2.3125 4.465 2.3125 3.805 2.3125 3.125 C0.9925 4.115 -0.3275 5.105 -1.6875 6.125 C-1.6875 4.805 -1.6875 3.485 -1.6875 2.125 C-3.6675 2.125 -5.6475 2.125 -7.6875 2.125 C-4.48369983 -0.01086678 -3.66810033 -0.10632175 0 0 Z " fill="#EDB453" transform="translate(50.6875,49.875)"/>
<path d="M0 0 C1.98 0 3.96 0 6 0 C6 4.62 6 9.24 6 14 C5.67 14 5.34 14 5 14 C5 10.04 5 6.08 5 2 C3.35 2.66 1.7 3.32 0 4 C0 2.68 0 1.36 0 0 Z " fill="#BAB1A1" transform="translate(31,53)"/>
<path d="M0 0 C0.33 0 0.66 0 1 0 C1 4.62 1 9.24 1 14 C0.67 13.34 0.34 12.68 0 12 C-0.99 12 -1.98 12 -3 12 C-2.67 11.01 -2.34 10.02 -2 9 C-1.34 9 -0.68 9 0 9 C0 6.03 0 3.06 0 0 Z " fill="#E8E0D3" transform="translate(68,36)"/>
</svg>
